# xmcd
#
# Track frame offsets:
#	150
#	14762
#	32180
#	47236
#	63558
#	83009
#	98093
#	112804
#	128403
#	142683
#	160768
#
# Disc length: 2356 seconds
#
# Revision: 0
# Processed by: cddbd v1.5.1PL0 Copyright (c) Steve Scherf et al.
# Submitted via: audiograbber 1.83.01
#
DISCID=8309320b
DTITLE=Gentry, Montgomery - Tattoos and Scars - Gentry, Montgomery - Tattoos and Sc
DTITLE=ars
DYEAR=1999
DGENRE=Country
TTITLE0=Hillbilly Shoes
TTITLE1=Trying To Survive
TTITLE2=Lonely And Gone
TTITLE3=Self Made Man
TTITLE4=Daddy Won't Sell The Farm
TTITLE5=If A Broken Heart Could Kill
TTITLE6=I've Loved A Lot More Than I've Hurt
TTITLE7=Didn't Your Mama Tell Ya'
TTITLE8=Trouble Is
TTITLE9=Tattoos and Scars
TTITLE10=All Night Long
EXTD=
EXTT0=
EXTT1=
EXTT2=
EXTT3=
EXTT4=
EXTT5=
EXTT6=
EXTT7=
EXTT8=
EXTT9=
EXTT10=
PLAYORDER=
